<?xml version="1.0" encoding="UTF-8"?>
<svg version="1.1" viewBox="0 0 128 128" xmlns="http://www.w3.org/2000/svg">
<path d="m63.947 6.0002-50.205 29v1.1836l50.205 29 50.244-28.998v-1.1856z" fill="#2e8ae8"/>
<path d="m114.26 35-50.244 29h-0.98047v57.434l0.98047 0.56641 50.244-29z" fill="#045fb4"/>
<path d="m13.742 93 50.205 29v-58l-50.205-29z" fill="#034482"/>
<g fill="#fff">
<path d="m25.585 55.356v20.061l17.576 10.162v3.7832l-17.576-10.164v8.2539l25.713 14.824v-20.25l-18.721-10.812v-3.8223l18.721 10.814v-8.0254z"/>
<path d="m101.72 55.146c-0.64953 0-1.2999 0.19238-1.873 0.49805l-23.039 13.334v33.508l24.834-14.365c2.3689-1.3755 3.8223-3.8966 3.8223-6.6094v-22.582c0-2.0632-1.6809-3.7832-3.7441-3.7832zm-4.748 11.445c0.52722 0.0448 1.022 0.34271 1.3086 0.82031 0.15283 0.22925 0.19031 0.49622 0.22852 0.76368v10.891c0 1.6047-0.87842 3.0933-2.2539 3.8574l-11.615 6.4961-0.0371-16.047 11.424-6.5723c0.30088-0.17194 0.62898-0.23585 0.94531-0.20899z"/>
<path d="m57.904 24.609c-0.70685 0-1.3979 0.0419-2.0645 0.11914-0.66655 0.0772-1.3094 0.19133-1.9219 0.33789s-1.1935 0.32522-1.7383 0.5332-1.0524 0.44555-1.5156 0.70703c-0.46327 0.26149-0.88195 0.54644-1.25 0.85352s-0.68621 0.6357-0.94531 0.98047-0.45929 0.70553-0.5957 1.0801c-0.13642 0.37455-0.20899 0.7618-0.20899 1.1582s0.0726 0.78561 0.20899 1.1602c0.13641 0.37454 0.3366 0.73531 0.5957 1.0801 0.2591 0.34477 0.57726 0.67339 0.94531 0.98047s0.78673 0.59203 1.25 0.85352c0.46327 0.26148 0.97087 0.49905 1.5156 0.70703s1.1258 0.38664 1.7383 0.5332c0.61252 0.14657 1.2553 0.26066 1.9219 0.33789 0.66655 0.0772 1.3576 0.11719 2.0645 0.11719 0.76416 0 1.4908-0.0369 2.2168-0.11328l9.3984 9.3984 15.168-8.5586-17.041-4.6992c0.17193-0.26746 0.29771-0.56348 0.3789-0.86915 0.0812-0.30566 0.11914-0.62207 0.11914-0.92773 0-0.39163-0.0726-0.77456-0.20898-1.1465-0.13642-0.37193-0.33661-0.7323-0.59571-1.0762-0.25909-0.34387-0.57726-0.67106-0.94531-0.97851-0.36805-0.30746-0.78673-0.59475-1.25-0.85743s-0.97086-0.50138-1.5156-0.71093c-0.54477-0.20955-1.1258-0.39101-1.7383-0.53907-0.61253-0.14805-1.2553-0.26163-1.9219-0.33984-0.66655-0.0782-1.3576-0.12109-2.0644-0.12109z"/>
</g>
</svg>
